<?xml version="1.0" encoding="UTF-8"?>
<svg id="_Слой_1" data-name="Слой 1" xmlns="http://www.w3.org/2000/svg" viewBox="0 0 249.79 150.2">
  <defs>
    <style>
      .cls-1, .cls-2, .cls-3 {
        stroke-width: 0px;
      }

      .cls-1, .cls-3 {
        fill: #4490ce;
      }

      .cls-2 {
        fill: #fff;
      }

      .cls-3 {
        fill-rule: evenodd;
      }
    </style>
  </defs>
  <g>
    <g>
      <polygon class="cls-1" points="94.13 145.76 62.96 104.45 57.8 110.2 57.8 145.76 5.16 145.76 5.16 4.35 57.8 4.35 57.8 45.22 94.75 4.35 155.22 4.35 98.13 67.46 156.72 145.76 94.13 145.76"/>
      <path class="cls-2" d="M143.64,9.51l-52.34,58.22,54.95,73.9h-51.01l-32.79-43.73-9.81,11.02v32.71H9.29V9.51h43.35v47.85L95.62,9.51h47.85M165.61.22h-72.96l-2.67,2.92-28.05,30.7V.22H0v149.67h61.93v-38.14l.42-.46,26.75,35.07,2.69,3.52h74.18l-10.77-14.23-51.36-67.89,48.17-52.68L165.61.22h0Z"/>
    </g>
    <path class="cls-2" d="M243.69,44.99c-4.03-9.08-9.75-17.12-16.98-23.88-7.22-6.74-15.82-12.01-25.56-15.67-9.64-3.62-20.31-5.45-31.7-5.45s-21.9,1.83-31.59,5.44c-9.81,3.65-18.44,8.93-25.67,15.67-7.24,6.76-12.96,14.79-16.98,23.88-4.05,9.12-6.1,19.25-6.1,30.11s2.05,20.82,6.09,30c4.03,9.15,9.74,17.22,16.99,23.99,7.22,6.75,15.86,12.02,25.67,15.67,9.7,3.61,20.39,5.44,31.77,5.44s21.88-1.83,31.52-5.45c9.74-3.65,18.34-8.92,25.56-15.66,7.25-6.77,12.96-14.84,16.99-23.99,4.04-9.18,6.09-19.27,6.09-29.99s-2.05-20.97-6.1-30.1ZM235.54,101.5c-3.56,8.08-8.53,15.1-14.92,21.07-6.39,5.97-13.92,10.58-22.6,13.83-8.68,3.26-18.15,4.88-28.39,4.88s-19.92-1.63-28.66-4.88c-8.74-3.25-16.31-7.87-22.69-13.83-6.39-5.97-11.36-12.99-14.92-21.07-3.56-8.08-5.33-16.88-5.33-26.4s1.78-18.47,5.33-26.49c3.55-8.02,8.53-15.01,14.92-20.98,6.39-5.97,13.95-10.58,22.69-13.83,8.74-3.25,18.23-4.88,28.48-4.88s19.89,1.63,28.57,4.88c8.68,3.25,16.21,7.87,22.6,13.83,6.39,5.97,11.36,12.96,14.92,20.98,3.55,8.02,5.33,16.85,5.33,26.49s-1.78,18.33-5.33,26.4Z"/>
    <path class="cls-3" d="M235.54,48.61c-3.56-8.02-8.53-15.01-14.92-20.98-6.39-5.97-13.92-10.58-22.6-13.83-8.68-3.25-18.2-4.88-28.57-4.88s-19.74,1.63-28.48,4.88c-8.74,3.25-16.31,7.87-22.69,13.83-6.39,5.97-11.36,12.96-14.92,20.98-3.56,8.02-5.33,16.85-5.33,26.49s1.78,18.33,5.33,26.4c3.55,8.08,8.53,15.1,14.92,21.07,6.39,5.97,13.95,10.58,22.69,13.83,8.74,3.26,18.29,4.88,28.66,4.88s19.71-1.63,28.39-4.88c8.68-3.25,16.21-7.87,22.6-13.83,6.39-5.97,11.36-12.99,14.92-21.07,3.55-8.08,5.33-16.88,5.33-26.4s-1.78-18.47-5.33-26.49ZM123.86,95.31c-.12-.04-.24-.09-.35-.13h.35v.13ZM229.14,83.39v-.17c.06-.03.1-.05.1-.05-.03.07-.06.15-.1.22Z"/>
  </g>
  <path class="cls-2" d="M157.81,88.99c0-2.44.5-4.63,1.5-6.58,1-1.95,2.26-3.69,3.78-5.24,1.52-1.54,3.15-2.94,4.88-4.2,1.73-1.26,3.36-2.46,4.88-3.59,1.52-1.14,2.78-2.27,3.78-3.41,1-1.14,1.5-2.31,1.5-3.53,0-1.87-1.02-3.29-3.07-4.26s-4.54-1.46-7.48-1.46c-3.36,0-6.51.73-9.45,2.19-2.94,1.46-5.25,3.49-6.93,6.09l-28.04-10.84c3.99-5.85,10.03-10.6,18.12-14.25,8.09-3.65,18.43-5.48,31.04-5.48,8.3,0,15.68.87,22.14,2.62,7.21,1.95,12.75,4.96,16.62,9.03,2.68,2.82,4.2,6.57,4.38,10.47.17,3.57-.43,6.67-1.79,9.31-1.21,2.36-2.78,4.41-4.73,6.15-1.94,1.75-3.97,3.35-6.07,4.81-2.1,1.46-4.12,2.82-6.07,4.08-1.94,1.26-3.52,2.54-4.73,3.84-1.21,1.3-1.81,2.72-1.81,4.26h-32.45ZM174.03,122.34c-6.09,0-11.08-1.44-14.97-4.33-3.89-2.88-5.83-6.31-5.83-10.29s1.94-7.47,5.83-10.23c3.88-2.76,8.87-4.14,14.97-4.14s11.21,1.38,15.05,4.14c3.83,2.76,5.75,6.17,5.75,10.23s-1.92,7.41-5.75,10.29c-3.84,2.88-8.85,4.33-15.05,4.33Z"/>
</svg>